HIERARCHY
ROOT Hips
{
    OFFSET 0.000000 0.000000 0.000000
    CHANNELS 6 Xposition Yposition Zposition Zrotation Yrotation Xrotation
    JOINT LeftUpLeg
    {
        OFFSET 1.363060 -1.794630 0.839290
        CHANNELS 3 Zrotation Yrotation Xrotation
        JOINT LeftLeg
        {
            OFFSET 2.448110 -6.726130 0.000000
            CHANNELS 3 Zrotation Yrotation Xrotation
            JOINT LeftFoot
            {
                OFFSET 2.562200 -7.039589 0.000000
                CHANNELS 3 Zrotation Yrotation Xrotation
                JOINT LeftToeBase
                {
                    OFFSET 0.157640 -0.433110 2.322550
                    CHANNELS 3 Zrotation Yrotation Xrotation
                    End Site
                    {
                        OFFSET 0.000000 0.000000 0.000000
                    }
                }
            }
        }
    }
    JOINT RightUpLeg
    {
        OFFSET -1.305520 -1.794630 0.839290
        CHANNELS 3 Zrotation Yrotation Xrotation
        JOINT RightLeg
        {
            OFFSET -2.542530 -6.985549 0.000000
            CHANNELS 3 Zrotation Yrotation Xrotation
            JOINT RightFoot
            {
                OFFSET -2.568260 -7.056230 0.000000
                CHANNELS 3 Zrotation Yrotation Xrotation
                JOINT RightToeBase
                {
                    OFFSET -0.164730 -0.452590 2.363150
                    CHANNELS 3 Zrotation Yrotation Xrotation
                    End Site
                    {
                        OFFSET 0.000000 0.000000 0.000000
                    }
                }
            }
        }
    }
    JOINT Spine
    {
        OFFSET 0.028270 2.035590 -0.193380
        CHANNELS 3 Zrotation Yrotation Xrotation
        JOINT Spine1
        {
            OFFSET 0.056720 2.048850 -0.042750
            CHANNELS 3 Zrotation Yrotation Xrotation
            JOINT Neck1
            {
                OFFSET -0.054170 1.746240 0.172020
                CHANNELS 3 Zrotation Yrotation Xrotation
                JOINT Head
                {
                    OFFSET 0.104070 1.761360 -0.123970
                    CHANNELS 3 Zrotation Yrotation Xrotation
                    End Site
                    {
                        OFFSET 0.000000 0.000000 0.000000
                    }
                }
            }
            JOINT LeftShoulder
            {
                OFFSET 0.000000 0.000000 0.000000
                CHANNELS 3 Zrotation Yrotation Xrotation
                JOINT LeftArm
                {
                    OFFSET 3.362410 1.200890 -0.311210
                    CHANNELS 3 Zrotation Yrotation Xrotation
                    JOINT LeftForeArm
                    {
                        OFFSET 4.983000 -0.000000 -0.000000
                        CHANNELS 3 Zrotation Yrotation Xrotation
                        JOINT LeftHand
                        {
                            OFFSET 3.483560 -0.000000 -0.000000
                            CHANNELS 3 Zrotation Yrotation Xrotation
                            End Site
                            {
                                OFFSET 0.000000 0.000000 0.000000
                            }
                        }
                    }
                }
            }
            JOINT RightShoulder
            {
                OFFSET 0.000000 0.000000 0.000000
                CHANNELS 3 Zrotation Yrotation Xrotation
                JOINT RightArm
                {
                    OFFSET -3.136600 1.374050 -0.404650
                    CHANNELS 3 Zrotation Yrotation Xrotation
                    JOINT RightForeArm
                    {
                        OFFSET -5.241900 -0.000000 -0.000000
                        CHANNELS 3 Zrotation Yrotation Xrotation
                        JOINT RightHand
                        {
                            OFFSET -3.444170 -0.000000 -0.000000
                            CHANNELS 3 Zrotation Yrotation Xrotation
                            End Site
                            {
                                OFFSET 0.000000 0.000000 0.000000
                            }
                        }
                    }
                }
            }
        }
    }
}
MOTION
Frames: 13
Frame Time: 0.016667
21.610214 16.539812 -1.630621 2.943049 -6.821500 32.035202 -15.450001 -9.884912 -55.022888 -27.852226 -18.669203 65.915588 -8.304838 44.624466 -31.951120 0.236363 -0.943312 2.445649 4.623579 11.379643 -53.531364 46.177124 16.226063 79.402351 17.097342 -55.964764 -55.923122 -0.263396 -0.905759 -1.255179 4.455187 -0.366270 10.856750 -1.012693 -0.005437 0.079604 5.983597 -2.340191 10.914135 -2.455882 -1.893857 -7.025401 -5.024096 -11.195861 2.470721 -70.122849 -21.243704 41.961121 18.339647 -12.196498 -17.396629 9.705951 -3.378905 -13.319265 6.724294 10.440750 5.143716 61.096638 18.917173 30.341309 -9.790393 9.417728 -9.804157 -11.332367 1.205899 -8.277308 
21.638432 16.686991 -1.539594 2.602438 -6.863847 31.402205 -15.650682 -9.463618 -52.869736 -27.397545 -20.210421 64.491829 -8.855926 45.205742 -31.370268 0.235965 -0.909135 2.408760 4.874897 11.358372 -51.786263 46.088787 17.391178 78.568871 17.792698 -55.925770 -54.746685 -0.277767 -0.962298 -1.579871 4.529850 -0.479843 10.783073 -0.958691 -0.089300 0.210465 6.016484 -2.347447 11.065243 -2.327786 -1.858697 -6.498258 -5.078025 -10.794139 2.407464 -70.235710 -20.801910 42.096241 18.082703 -12.369756 -17.330782 9.511518 -3.387460 -13.255548 6.789108 10.034880 5.322495 61.561501 19.240999 30.750324 -9.980520 9.508106 -9.844206 -12.196204 1.181611 -8.297032 
21.664984 16.826935 -1.473337 2.254057 -7.030141 31.267193 -15.904439 -9.049368 -51.406685 -26.783285 -21.802843 63.093136 -9.264514 45.850090 -30.485764 0.224978 -0.909927 2.333722 4.960379 11.183414 -51.037491 44.318676 17.808842 76.455223 17.024931 -54.514412 -51.180096 -0.024647 -0.063068 -1.977169 4.587334 -0.454459 10.355426 -0.911976 -0.094912 0.235329 6.062818 -2.340911 11.290916 -2.389858 -1.776037 -6.232221 -5.152051 -10.498073 2.411033 -70.299072 -20.512798 42.215412 17.788422 -12.413123 -17.032246 9.600564 -3.417820 -13.040216 6.858188 9.778667 5.264784 62.075882 19.252724 31.472826 -10.198759 9.593436 -9.697445 -11.944417 1.068275 -8.059634 
21.688251 16.978992 -1.399262 1.935974 -7.389275 30.900616 -16.068628 -8.430325 -49.554672 -26.223770 -23.354780 61.293457 -9.638457 46.637093 -29.261606 0.201134 -0.930448 2.189329 4.357920 11.230377 -49.872036 42.266499 17.824291 73.215240 17.013071 -51.807243 -47.145817 0.177781 0.713677 -3.376534 4.599293 -0.340379 10.117384 -0.914149 -0.038137 0.257782 6.530019 -2.102260 11.711599 -3.742447 -1.453019 -6.347299 -5.336707 -10.226574 2.457144 -70.310669 -20.278942 42.286434 17.421717 -12.267053 -16.677063 9.580871 -3.583749 -12.871312 6.891624 9.476198 5.183941 62.558571 19.200335 32.163105 -10.361898 9.559713 -9.794942 -12.326423 1.222844 -8.183402 
21.707188 17.132832 -1.326464 1.563982 -7.891043 30.475639 -16.185019 -7.584828 -47.721539 -25.487989 -24.724840 59.298065 -10.125967 47.161568 -27.950325 0.106318 -0.694540 1.313049 3.871941 11.383993 -48.950661 41.166908 17.684919 70.832756 14.953084 -51.278973 -41.896446 -0.027347 -0.059333 -3.232643 4.575472 -0.158059 9.885003 -0.922800 0.051744 0.246150 6.429940 -2.209595 12.068414 -3.592674 -1.420740 -5.748039 -5.435511 -9.903480 2.472386 -70.384247 -19.875347 42.312618 17.102257 -12.223033 -16.411489 9.690141 -3.592356 -12.719920 6.952580 9.317441 5.072417 63.073132 18.962086 33.310783 -10.664942 9.451730 -10.049487 -12.336220 1.222288 -8.390797 
21.720062 17.289865 -1.255134 1.290639 -8.428540 29.994591 -16.251537 -6.787492 -45.857380 -25.124155 -26.221575 57.499374 -10.756435 48.029316 -26.502403 0.146490 -0.433189 1.346321 3.932482 10.871100 -48.254505 39.395130 17.593239 68.643387 13.873317 -49.174427 -36.623352 0.002976 0.065116 -3.944324 4.508670 0.006457 9.713969 -0.928178 0.137317 0.202444 6.357551 -2.258652 12.596008 -3.741339 -1.308469 -5.269415 -5.541889 -9.573676 2.392286 -70.439545 -19.257332 42.392570 16.745295 -12.297770 -16.467405 9.331774 -3.274130 -12.749612 7.052297 9.122881 4.997347 63.401321 18.820318 33.539639 -10.370356 9.539972 -9.524448 -11.627092 1.132618 -7.867812 
21.730238 17.440960 -1.192517 0.980463 -8.792883 29.720840 -15.833363 -6.353141 -44.476269 -22.430172 -25.637812 53.766571 -11.226136 46.298649 -23.309259 0.044805 -0.780663 0.970340 4.027822 10.450915 -47.820530 40.025677 18.434940 68.347191 15.095312 -49.447643 -34.113239 0.261094 1.119675 -5.146090 4.605112 0.152548 9.443474 -0.966861 0.200093 0.183767 6.277554 -2.307716 13.318683 -3.896695 -1.149779 -5.697526 -5.601290 -9.178180 2.345622 -70.559761 -18.976791 42.786526 16.477030 -12.124375 -16.255243 9.599109 -3.536082 -12.745252 7.057983 8.905064 4.947881 63.722874 18.821257 33.354561 -10.045746 9.586898 -9.041134 -11.592142 1.216863 -7.469890 
21.736347 17.590225 -1.133123 0.769702 -9.066714 29.454382 -15.334359 -6.052619 -43.398788 -21.086779 -25.273157 51.327568 -11.984712 45.612438 -20.663652 -0.145898 -1.039898 -0.123190 5.052093 9.033915 -47.732651 39.766071 19.313967 68.147469 14.387072 -48.491207 -30.984379 0.089842 0.401254 -4.046038 4.674479 0.252573 9.123407 -1.063293 0.241631 0.222146 6.156209 -2.520415 13.720385 -3.740108 -1.204099 -4.898646 -5.735190 -8.849904 2.446036 -70.531021 -18.898245 43.038151 16.165335 -11.913534 -16.193674 9.473293 -3.483691 -12.809469 7.057926 8.728570 4.886038 64.005905 18.842747 33.301865 -9.970859 9.626874 -9.381339 -12.942664 1.283059 -7.900589 
21.728565 17.737309 -1.081064 0.790449 -9.127006 29.250511 -14.877772 -5.850955 -42.747749 -19.717854 -24.270315 48.896954 -12.027524 44.424774 -16.847380 -0.377413 -1.088370 -1.708505 6.540608 7.236683 -47.951988 42.710258 21.898874 71.528305 18.063175 -49.545399 -34.273705 0.048952 0.225625 -3.207872 4.605739 0.202295 8.876826 -0.984211 0.205576 0.256645 5.903009 -2.587804 14.212755 -3.583058 -1.136137 -4.936967 -5.716752 -8.527040 2.317376 -70.720886 -18.738113 43.554634 15.919294 -11.649846 -16.069122 9.224254 -3.528151 -12.815261 7.198884 8.478930 5.029517 64.156746 19.057531 34.251434 -10.090442 9.418838 -9.501613 -11.885839 1.149676 -7.942080 
21.710852 17.879126 -1.030287 0.871201 -9.049912 29.001875 -14.508521 -5.726326 -42.384846 -19.715544 -23.989777 48.088661 -11.870338 44.540119 -13.971081 -0.471156 -0.708916 -2.637986 7.296995 6.145515 -47.583530 43.137428 23.606569 71.980339 20.854759 -49.257092 -37.404579 0.217201 0.894587 -4.108851 4.580354 0.188173 8.754979 -1.108079 0.195625 0.168730 5.930676 -2.666940 14.874538 -3.811393 -1.065465 -5.350115 -5.684245 -8.360408 2.389079 -70.662979 -18.824089 43.668182 15.591034 -11.393513 -15.793675 9.117434 -3.656201 -12.717051 6.953660 8.375100 4.776490 64.758896 18.797153 34.676727 -10.163066 9.322502 -9.633915 -12.307526 1.104893 -8.080437 
21.681454 18.008171 -0.989815 1.014801 -8.958399 28.902592 -14.190809 -5.591698 -42.668434 -18.462042 -22.123707 46.489704 -11.203893 43.182251 -9.647282 -0.693727 -0.923912 -4.042337 7.252122 5.890118 -47.110317 39.127598 23.533379 67.865723 18.367992 -46.989059 -35.589489 0.216873 0.900912 -4.274194 4.378438 0.162593 8.652458 -1.010041 0.178521 0.215533 5.864994 -2.737621 15.137989 -4.035542 -1.103306 -5.539270 -5.707832 -8.216052 2.307263 -70.518417 -18.897306 43.570374 15.483520 -11.433730 -15.551359 9.042292 -3.698881 -12.495004 7.112082 8.213928 4.936871 64.698341 19.134930 34.710094 -10.113170 9.457247 -9.612159 -11.954647 1.306662 -8.077635 
21.656406 18.109928 -0.957159 1.175510 -8.902954 29.061619 -13.671005 -5.808505 -43.623428 -16.529778 -18.787006 44.575584 -9.618095 41.069885 -4.084849 -1.005432 -1.246040 -6.065908 6.907710 6.199666 -46.803555 35.063915 23.333441 63.550220 16.609127 -45.313004 -34.505947 0.193265 0.795642 -3.953330 4.187568 0.231278 8.403075 -1.053787 0.214565 0.049347 5.858091 -2.844521 15.482369 -4.112398 -1.136597 -5.766799 -5.459138 -8.306905 2.201595 -70.397125 -18.701517 42.989201 15.317442 -11.833140 -15.214778 9.291669 -3.710534 -12.108107 6.757746 8.367825 4.738858 65.153481 18.854265 35.619900 -10.505198 9.360527 -10.227979 -12.599389 1.361665 -8.665869 
21.623098 18.177658 -0.922879 1.301022 -8.834731 29.242113 -13.240373 -5.918526 -45.142311 -18.104406 -18.454912 46.372967 -7.699407 42.840218 0.001873 -1.341175 -1.289326 -8.455963 6.179469 7.155431 -46.393509 31.824402 23.000572 59.514179 14.881244 -45.096012 -34.147835 -0.070639 -0.222805 -2.957308 3.965478 0.304881 8.161647 -1.003799 0.246443 0.076388 5.805428 -2.984925 15.465447 -4.024999 -1.292817 -5.759527 -5.441571 -8.356100 2.185700 -70.155296 -18.787336 42.885078 15.486366 -11.908140 -15.265120 9.235468 -3.761192 -12.104828 6.814298 8.439193 4.824034 64.920601 18.988216 35.373009 -10.342143 9.512544 -9.837534 -12.449748 1.544582 -8.325402 
